<svg width="38" height="36" viewBox="0 0 38 36" fill="none" xmlns="http://www.w3.org/2000/svg">
<path d="M36.7309 0.848641C36.2391 0.424272 35.6455 0.146146 35.0134 0.0438631C34.3814 -0.0584202 33.7343 0.018966 33.1413 0.267786L2.1862 13.2306C1.5242 13.5131 0.960693 13.9978 0.570464 14.6202C0.180234 15.2427 -0.0182621 15.9735 0.00132134 16.7157C0.0209048 17.4579 0.257642 18.1764 0.68011 18.7758C1.10258 19.3751 1.6908 19.8271 2.3667 20.0716L8.62823 22.3303L12.1183 34.3012C12.1657 34.4611 12.2345 34.6133 12.3228 34.7533C12.3361 34.7748 12.355 34.7908 12.3693 34.8117C12.4712 34.9592 12.5943 35.0896 12.7345 35.1983C12.7743 35.2298 12.8125 35.2593 12.8551 35.2873C13.019 35.4001 13.2006 35.4826 13.3918 35.5312L13.4122 35.5329L13.4238 35.5381C13.5388 35.5623 13.6557 35.5746 13.773 35.5748C13.7843 35.5748 13.7943 35.5692 13.8055 35.569C13.9825 35.5658 14.1579 35.5342 14.3256 35.4753C14.3646 35.4615 14.398 35.4385 14.4358 35.4218C14.5609 35.3681 14.6793 35.2992 14.7887 35.2166C14.8763 35.14 14.964 35.0635 15.0516 34.987L19.7191 29.6419L26.6807 35.2354C27.2936 35.7303 28.0479 35.9993 28.8247 36C29.6385 35.9989 30.4273 35.7077 31.0587 35.175C31.6902 34.6424 32.1259 33.9008 32.2928 33.0746L37.9285 4.37936C38.0562 3.73352 38.0122 3.06382 37.8013 2.44191C37.5903 1.81999 37.2203 1.26926 36.7309 0.848641V0.848641ZM14.4579 22.9007C14.2184 23.1482 14.0547 23.4634 13.9873 23.807L13.4527 26.5016L12.0984 21.8558L19.1203 18.0631L14.4579 22.9007ZM28.7977 32.4028L20.571 25.7928C20.2268 25.5169 19.7951 25.3857 19.3618 25.4252C18.9285 25.4648 18.5255 25.6722 18.233 26.0062L16.7382 27.7175L17.2665 25.0544L29.5011 12.3645C29.7931 12.062 29.971 11.6611 30.0026 11.2342C30.0342 10.8074 29.9174 10.383 29.6733 10.0378C29.4292 9.69262 29.074 9.44952 28.672 9.35255C28.27 9.25557 27.8479 9.31113 27.482 9.50916L9.92328 18.9914L3.49013 16.5496L34.5447 3.66373L28.7977 32.4028Z" fill="white"/>
</svg>
